<?xml version="1.0" encoding="UTF-8"?>
<svg xmlns="http://www.w3.org/2000/svg" xmlns:xlink="http://www.w3.org/1999/xlink" viewBox="0 0 512 512" width="512px" height="512px">
<defs>
<radialGradient id="radial0" gradientUnits="userSpaceOnUse" cx="32" cy="33.5" fx="32" fy="33.5" r="45.237" gradientTransform="matrix(8,0,0,8,0,0)">
<stop offset="0" style="stop-color:rgb(100%,100%,100%);stop-opacity:0;"/>
<stop offset="0.642" style="stop-color:rgb(77.254903%,96.078432%,100%);stop-opacity:1;"/>
<stop offset="1" style="stop-color:rgb(86.274511%,97.647059%,100%);stop-opacity:1;"/>
</radialGradient>
<linearGradient id="linear0" gradientUnits="userSpaceOnUse" x1="32" y1="-39.362" x2="32" y2="74.676003" gradientTransform="matrix(8,0,0,8,0,0)">
<stop offset="0" style="stop-color:rgb(100%,38.82353%,30.19608%);stop-opacity:1;"/>
<stop offset="0.204" style="stop-color:rgb(99.607843%,39.215687%,39.215687%);stop-opacity:1;"/>
<stop offset="0.521" style="stop-color:rgb(98.823529%,39.607844%,50.588238%);stop-opacity:1;"/>
<stop offset="0.794" style="stop-color:rgb(98.039216%,40.000001%,58.039218%);stop-opacity:1;"/>
<stop offset="0.989" style="stop-color:rgb(98.039216%,40.000001%,60.392159%);stop-opacity:1;"/>
<stop offset="1" style="stop-color:rgb(98.039216%,40.000001%,60.392159%);stop-opacity:1;"/>
</linearGradient>
<linearGradient id="linear1" gradientUnits="userSpaceOnUse" x1="16.5" y1="78.245003" x2="16.5" y2="11.785" gradientTransform="matrix(8,0,0,8,0,0)">
<stop offset="0" style="stop-color:rgb(100%,49.019608%,36.078432%);stop-opacity:1;"/>
<stop offset="0.214" style="stop-color:rgb(100%,49.411765%,44.705883%);stop-opacity:1;"/>
<stop offset="0.524" style="stop-color:rgb(98.823529%,49.411765%,54.901963%);stop-opacity:1;"/>
<stop offset="0.793" style="stop-color:rgb(98.039216%,49.803922%,61.176473%);stop-opacity:1;"/>
<stop offset="0.931" style="stop-color:rgb(98.039216%,49.803922%,63.529414%);stop-opacity:1;"/>
<stop offset="1" style="stop-color:rgb(98.039216%,49.803922%,63.529414%);stop-opacity:1;"/>
</linearGradient>
</defs>
<g id="surface158096">
<path style=" stroke:none;fill-rule:nonzero;fill:url(#radial0);" d="M 511.398438 415.03125 C 509.207031 405.945312 500.390625 400 491.039062 400 L 476 400 C 469.375 400 464 394.632812 464 388 C 464 381.367188 469.375 376 476 376 L 479.289062 376 C 489.742188 376 499.664062 369.710938 502.792969 359.726562 C 507.96875 343.191406 495.761719 328 480 328 L 416 328 L 416 264 L 482.632812 264 C 496.367188 264 509.097656 254.734375 511.527344 241.214844 C 514.726562 223.457031 501.167969 208 484 208 L 472.855469 208 C 464.886719 208 457.496094 202.550781 456.214844 194.6875 C 454.585938 184.664062 462.28125 176 472 176 L 479.289062 176 C 489.734375 176 499.65625 169.710938 502.785156 159.742188 C 507.984375 143.199219 495.769531 128 480 128 L 474.953125 128 C 468.375 128 461.902344 124.9375 458.527344 119.296875 C 451.574219 107.671875 459.984375 95.6875 471.054688 96.007812 C 482.144531 96.335938 493.089844 92.183594 498.6875 82.609375 C 513.289062 57.632812 495.632812 32 472 32 L 41.167969 32 C 27.601562 32 12.457031 42.390625 9.089844 55.542969 C 3.695312 76.566406 19.152344 95.480469 39.175781 95.992188 C 45.648438 96.160156 52.054688 99.167969 54.566406 105.136719 C 59.480469 116.800781 51.046875 128 40 128 L 29.574219 128 C 15.753906 128 1.710938 139.03125 0.175781 152.777344 C -1.6875 169.457031 11.113281 183.609375 27.3125 183.992188 C 36.710938 184.214844 45.464844 190.257812 47.488281 199.441406 C 50.375 212.480469 40.535156 224 28 224 L 24.710938 224 C 14.265625 224 4.34375 230.289062 1.207031 240.257812 C -3.984375 256.792969 8.230469 272 24 272 L 96 272 L 96 328 L 32.886719 328 C 21.28125 328 10.640625 335.847656 8.457031 347.246094 C 5.511719 362.585938 17.191406 376 32 376 L 36 376 C 42.625 376 48 381.367188 48 388 C 48 394.632812 42.625 400 36 400 L 21.136719 400 C 10.671875 400 1.144531 407.527344 0.105469 417.9375 C -1.097656 429.910156 8.273438 440 20 440 L 76 440 C 82.625 440 88 445.375 88 452 C 88 458.625 82.625 464 76 464 L 69.136719 464 C 58.671875 464 49.144531 471.527344 48.105469 481.9375 C 46.902344 493.910156 56.273438 504 68 504 L 442.863281 504 C 453.328125 504 462.855469 496.472656 463.894531 486.0625 C 465.097656 474.089844 455.726562 464 444 464 L 436 464 C 429.375 464 424 458.625 424 452 C 424 445.375 429.375 440 436 440 L 492 440 C 504.664062 440 514.585938 428.222656 511.398438 415.03125 Z M 511.398438 415.03125 "/>
<path style=" stroke:none;fill-rule:nonzero;fill:url(#linear0);" d="M 440 152 L 440 360 C 440 404.183594 404.183594 440 360 440 L 152 440 C 107.816406 440 72 404.183594 72 360 L 72 152 C 72 107.816406 107.816406 72 152 72 L 360 72 C 404.183594 72 440 107.816406 440 152 Z M 440 152 "/>
<path style=" stroke:none;fill-rule:nonzero;fill:rgb(97.647059%,33.725491%,47.450981%);fill-opacity:1;" d="M 440 328 L 440 360 C 440 404.183594 404.183594 440 360 440 L 301.152344 440 C 290.6875 440 281.152344 432.480469 280.105469 422.070312 C 278.894531 410.105469 288.28125 400 300 400 L 368 400 C 376.839844 400 376 392.839844 376 384 L 368 368 L 344 368 L 352 328 Z M 440 328 "/>
<path style=" stroke:none;fill-rule:nonzero;fill:url(#linear1);" d="M 192 96 C 192 109.28125 181.28125 120 168 120 L 116 120 C 109.359375 120 104 125.359375 104 132 C 104 138.640625 109.359375 144 116 144 L 160 144 L 160 184 L 116 184 C 110.480469 184 105.441406 186.238281 101.839844 189.839844 C 98.238281 193.441406 96 198.480469 96 204 C 96 215.039062 104.960938 224 116 224 L 160 224 L 160 272 L 72 272 L 72 152 C 72 107.839844 107.839844 72 152 72 L 168 72 C 181.28125 72 192 82.71875 192 96 Z M 192 96 "/>
<path style=" stroke:none;fill-rule:nonzero;fill:rgb(100%,100%,100%);fill-opacity:1;" d="M 389.902344 389.375 C 380.160156 374.671875 366.535156 362.855469 356.273438 355.207031 L 363.585938 349.375 C 366.03125 347.425781 367.617188 344.59375 368.007812 341.496094 L 376.007812 277.496094 C 376.070312 276.992188 376.105469 276.503906 376.105469 276 L 376.105469 116 C 376.105469 109.375 370.726562 104 364.105469 104 L 148.105469 104 C 141.480469 104 136.105469 109.375 136.105469 116 L 136.105469 276 C 136.105469 276.503906 136.136719 276.992188 136.199219 277.496094 L 144.199219 341.496094 C 144.585938 344.59375 146.167969 347.414062 148.609375 349.367188 L 155.824219 355.144531 C 145.550781 362.785156 131.871094 374.625 122.097656 389.375 C 118.441406 394.894531 119.953125 402.34375 125.480469 406.007812 C 127.511719 407.351562 129.816406 408 132.097656 408 C 135.976562 408 139.800781 406.113281 142.113281 402.625 C 155.007812 383.152344 177.566406 369.105469 181.425781 366.792969 L 196.078125 360.921875 L 211.609375 367.136719 C 214.480469 368.28125 217.671875 368.28125 220.527344 367.136719 L 236.03125 360.929688 L 251.542969 367.136719 C 254.398438 368.28125 257.601562 368.28125 260.457031 367.136719 L 276 360.921875 L 291.550781 367.136719 C 294.40625 368.28125 297.601562 368.28125 300.457031 367.136719 L 316.015625 360.921875 L 330.296875 366.625 C 333.398438 368.464844 356.703125 382.734375 369.878906 402.625 C 372.199219 406.113281 376.015625 408 379.902344 408 C 382.183594 408 384.480469 407.351562 386.519531 406.007812 C 392.046875 402.34375 393.558594 394.894531 389.902344 389.375 Z M 311.558594 336.855469 L 296.007812 343.070312 L 280.457031 336.855469 C 279.023438 336.289062 277.511719 336 276 336 C 274.488281 336 272.976562 336.289062 271.542969 336.855469 L 256 343.078125 L 240.488281 336.863281 C 237.632812 335.71875 234.425781 335.71875 231.566406 336.863281 L 216.0625 343.070312 L 200.535156 336.863281 C 197.664062 335.71875 194.472656 335.71875 191.617188 336.863281 L 178.128906 342.265625 L 167.40625 333.6875 L 160.105469 275.257812 L 160.105469 128 L 352.105469 128 L 352.105469 275.246094 L 344.800781 333.671875 L 334.03125 342.265625 L 320.464844 336.847656 C 317.609375 335.710938 314.414062 335.71875 311.558594 336.855469 Z M 311.558594 336.855469 "/>
<path style=" stroke:none;fill-rule:nonzero;fill:rgb(100%,100%,100%);fill-opacity:1;" d="M 216.113281 248 C 216.113281 256.835938 208.921875 264 200.054688 264 C 191.1875 264 184 256.835938 184 248 C 184 239.164062 191.1875 232 200.054688 232 C 208.921875 232 216.113281 239.164062 216.113281 248 Z M 216.113281 248 "/>
<path style=" stroke:none;fill-rule:nonzero;fill:rgb(100%,100%,100%);fill-opacity:1;" d="M 328 248 C 328 256.835938 320.863281 264 312.054688 264 C 303.25 264 296.113281 256.835938 296.113281 248 C 296.113281 239.164062 303.25 232 312.054688 232 C 320.863281 232 328 239.164062 328 248 Z M 328 248 "/>
<path style=" stroke:none;fill-rule:nonzero;fill:rgb(100%,100%,100%);fill-opacity:1;" d="M 293.863281 288.726562 L 293.585938 288.769531 C 286.199219 289.753906 279.960938 290.753906 273.816406 291.3125 C 267.710938 291.929688 261.863281 292.207031 256 292.238281 C 250.136719 292.238281 244.28125 291.953125 238.175781 291.335938 C 232.015625 290.792969 225.777344 289.769531 218.414062 288.769531 L 218.136719 288.726562 C 217.152344 288.59375 216.113281 288.734375 215.199219 289.191406 C 213.144531 290.207031 212.488281 292.40625 213.71875 294.097656 C 222.238281 305.769531 239.375 311.984375 256 312 C 272.625 312.015625 289.792969 305.800781 298.289062 294.097656 C 298.792969 293.398438 299.015625 292.550781 298.847656 291.6875 C 298.464844 289.742188 296.230469 288.414062 293.863281 288.726562 Z M 293.863281 288.726562 "/>
</g>
</svg>
